<svg width="14" height="14" viewBox="0 0 14 14" fill="none" xmlns="http://www.w3.org/2000/svg">
<path d="M4.5 6H0.5C0.223744 6 0 6.22374 0 6.5V12.5C0 13.3281 0.671872 14 1.5 14H4.5C4.6325 14 4.76 13.9475 4.85374 13.8537C4.94749 13.76 4.99999 13.6325 4.99999 13.5V6.50001C4.99999 6.36751 4.94749 6.24001 4.85374 6.14626C4.75999 6.05251 4.6325 6.00001 4.5 6.00001V6ZM4 13H1.5C1.22374 13 1 12.7763 1 12.5V7H4V13ZM12.5 0H1.5C0.671872 0 0 0.671872 0 1.5V4.5C0 4.6325 0.0524992 4.76 0.14625 4.85374C0.24 4.94749 0.367498 4.99999 0.499994 4.99999H13.5C13.6325 4.99999 13.76 4.94749 13.8537 4.85374C13.9475 4.75999 14 4.6325 14 4.5V1.5C14 0.671872 13.3281 0 12.5 0H12.5ZM13 4H1V1.5C1 1.22374 1.22374 1 1.5 1H12.5C12.6325 1 12.76 1.0525 12.8537 1.14625C12.9475 1.24 13 1.3675 13 1.49999L13 4ZM13.5 6H6.5C6.22374 6 6 6.22374 6 6.5V13.5C6 13.6325 6.0525 13.76 6.14625 13.8537C6.24 13.9475 6.3675 14 6.49999 14H12.5C13.3281 14 14 13.3281 14 12.5V6.49999C14 6.36749 13.9475 6.23999 13.8537 6.14625C13.76 6.0525 13.6325 6 13.5 6ZM13 12.5C13 12.6325 12.9475 12.76 12.8538 12.8537C12.76 12.9475 12.6325 13 12.5 13H7.00001V6.99999H13L13 12.5Z" fill="#213F7D"/>
</svg>
