<svg width="17" height="11" viewBox="0 0 17 11" fill="none" xmlns="http://www.w3.org/2000/svg">
<path d="M6.076 6.414C5.84462 6.16282 5.57236 5.94944 5.26971 5.7852C5.65711 5.41119 5.90402 4.89128 5.92059 4.31541C6.07573 4.96189 6.46827 5.51703 7.00045 5.88345C6.66725 6.01902 6.35716 6.19908 6.076 6.414ZM5.84765 3.69634C5.84765 3.69646 5.84765 3.69659 5.84765 3.69672C5.60227 2.79168 4.7736 2.12403 3.79151 2.12403C2.61666 2.12403 1.66205 3.07926 1.66205 4.25349C1.66205 4.85393 1.91201 5.39783 2.31321 5.78524C1.34317 6.31187 0.682593 7.33992 0.682593 8.51939C0.682593 8.94258 1.02559 9.28479 1.44799 9.28479H4.50654C4.49758 9.38826 4.49239 9.49282 4.49239 9.59916C4.49239 10.0223 4.83532 10.3652 5.25845 10.3652H11.7417C12.1649 10.3652 12.5078 10.0223 12.5078 9.59916C12.5078 9.49244 12.5018 9.38774 12.4931 9.28479H15.5515C15.9745 9.28479 16.3176 8.94264 16.3176 8.51939C16.3176 7.33927 15.657 6.31181 14.687 5.78527C15.0883 5.3979 15.3389 4.85399 15.3389 4.25349C15.3389 3.07933 14.3837 2.12403 13.2094 2.12403C12.2277 2.12403 11.3991 2.79162 11.1538 3.69668C11.1538 3.69657 11.1538 3.69645 11.1538 3.69634C11.1538 2.23327 9.96346 1.04362 8.50037 1.04362C7.03802 1.04362 5.84765 2.23322 5.84765 3.69634ZM11.0808 4.31511C11.0973 4.89107 11.3437 5.4111 11.7311 5.78521C11.4284 5.9495 11.1566 6.16291 10.9248 6.41406C10.6437 6.19911 10.3335 6.01903 10.0003 5.88345C10.5326 5.51695 10.9256 4.96173 11.0808 4.31511ZM13.2089 5.51615H13.2088C12.511 5.51676 11.9449 4.9513 11.9449 4.25283C11.9449 3.55438 12.5111 2.98885 13.2089 2.98885C13.9067 2.98885 14.4729 3.55503 14.4729 4.25283C14.4729 4.95059 13.9068 5.51615 13.2089 5.51615ZM3.79056 5.51615H3.79047C3.0927 5.51676 2.52658 4.9513 2.52658 4.25283C2.52658 3.55438 3.09272 2.98885 3.79056 2.98885C4.48901 2.98885 5.05453 3.555 5.05453 4.25283C5.05453 4.95059 4.48842 5.51615 3.79056 5.51615ZM11.6162 9.19736C11.6283 9.29711 11.6364 9.39773 11.6397 9.49926H5.36052C5.36398 9.39786 5.37257 9.29728 5.38523 9.19747C5.41352 8.9743 5.46562 8.7588 5.53834 8.55285C5.65286 8.22923 5.81889 7.92995 6.02686 7.66403C6.16784 7.48377 6.3281 7.31901 6.50438 7.1736C7.04762 6.72627 7.74251 6.45796 8.5007 6.45796C9.25893 6.45796 9.95382 6.72626 10.497 7.1736C10.673 7.3188 10.8327 7.48419 10.9746 7.66416C11.1826 7.93005 11.3486 8.22928 11.4631 8.55285C11.5358 8.75872 11.5879 8.97485 11.6162 9.19736ZM6.71283 3.69635C6.71283 2.70964 7.51278 1.90901 8.50017 1.90901C9.48685 1.90901 10.2875 2.7096 10.2875 3.69635C10.2875 4.68368 9.48694 5.48369 8.50017 5.48369C7.51282 5.48369 6.71283 4.68377 6.71283 3.69635ZM1.5506 8.41951C1.60293 7.22751 2.58637 6.27672 3.79118 6.27672C4.44817 6.27672 5.03788 6.55965 5.44803 7.00975C5.10116 7.41778 4.83478 7.89642 4.67348 8.42017L1.5506 8.41951ZM15.4495 8.41882L12.3272 8.41948C12.1654 7.89581 11.8996 7.41716 11.5528 7.00906C11.963 6.55894 12.5527 6.27602 13.2089 6.27602C14.4144 6.27602 15.3972 7.22684 15.4495 8.41882Z" fill="#213F7D" stroke="#213F7D" stroke-width="0.2"/>
</svg>
