<svg fill="#000000" xmlns="http://www.w3.org/2000/svg"  viewBox="0 0 100 100" width="100px" height="100px"><path d="M 31.984375 4.9863281 A 1.0001 1.0001 0 0 0 31 6 L 31 15 L 23 15 C 20.802666 15 19 16.802666 19 19 C 19 21.197334 20.802666 23 23 23 L 23 83 L 17 83 A 1.0001 1.0001 0 1 0 17 85 L 24 85 L 76 85 L 83 85 A 1.0001 1.0001 0 1 0 83 83 L 77 83 L 77 23 C 79.197334 23 81 21.197334 81 19 C 81 16.802666 79.197334 15 77 15 L 39 15 L 39 11 A 1.0001 1.0001 0 0 0 37.984375 9.9863281 A 1.0001 1.0001 0 0 0 37 11 L 37 15 L 33 15 L 33 6 A 1.0001 1.0001 0 0 0 31.984375 4.9863281 z M 23 17 L 31.832031 17 A 1.0001 1.0001 0 0 0 32.158203 17 L 37.832031 17 A 1.0001 1.0001 0 0 0 38.158203 17 L 77 17 C 78.116666 17 79 17.883334 79 19 C 79 20.116666 78.116666 21 77 21 L 76 21 L 24 21 L 23 21 C 21.883334 21 21 20.116666 21 19 C 21 17.883334 21.883334 17 23 17 z M 25 23 L 75 23 L 75 26 L 56.5 26 A 0.50005 0.50005 0 1 0 56.5 27 L 75 27 L 75 76 L 72.5 76 A 0.50005 0.50005 0 1 0 72.5 77 L 75 77 L 75 83 L 55 83 L 55 77 L 66.5 77 A 0.50005 0.50005 0 1 0 66.5 76 L 55 76 C 55 73.250484 52.749516 71 50 71 C 47.250484 71 45 73.250484 45 76 L 37.5 76 A 0.50005 0.50005 0 1 0 37.5 77 L 45 77 L 45 83 L 25 83 L 25 77 L 27.5 77 A 0.50005 0.50005 0 1 0 27.5 76 L 25 76 L 25 27 L 40.5 27 A 0.50005 0.50005 0 1 0 40.5 26 L 25 26 L 25 23 z M 43.5 26 A 0.50005 0.50005 0 1 0 43.5 27 L 44.5 27 A 0.50005 0.50005 0 1 0 44.5 26 L 43.5 26 z M 47.5 26 A 0.50005 0.50005 0 1 0 47.5 27 L 53.5 27 A 0.50005 0.50005 0 1 0 53.5 26 L 47.5 26 z M 32.5 32 A 0.50005 0.50005 0 0 0 32 32.5 L 32 38.5 A 0.50005 0.50005 0 0 0 32.5 39 L 37.5 39 A 0.50005 0.50005 0 0 0 38 38.5 L 38 32.5 A 0.50005 0.50005 0 0 0 37.5 32 L 32.5 32 z M 42.5 32 A 0.50005 0.50005 0 0 0 42 32.5 L 42 38.5 A 0.50005 0.50005 0 0 0 42.5 39 L 47.5 39 A 0.50005 0.50005 0 0 0 48 38.5 L 48 32.5 A 0.50005 0.50005 0 0 0 47.5 32 L 42.5 32 z M 52.5 32 A 0.50005 0.50005 0 0 0 52 32.5 L 52 38.5 A 0.50005 0.50005 0 0 0 52.5 39 L 57.5 39 A 0.50005 0.50005 0 0 0 58 38.5 L 58 32.5 A 0.50005 0.50005 0 0 0 57.5 32 L 52.5 32 z M 62.5 32 A 0.50005 0.50005 0 0 0 62 32.5 L 62 38.5 A 0.50005 0.50005 0 0 0 62.5 39 L 67.5 39 A 0.50005 0.50005 0 0 0 68 38.5 L 68 32.5 A 0.50005 0.50005 0 0 0 67.5 32 L 62.5 32 z M 33 33 L 37 33 L 37 38 L 33 38 L 33 33 z M 43 33 L 47 33 L 47 38 L 43 38 L 43 33 z M 53 33 L 57 33 L 57 38 L 53 38 L 53 33 z M 63 33 L 67 33 L 67 38 L 63 38 L 63 33 z M 32.5 42 A 0.50005 0.50005 0 0 0 32 42.5 L 32 48.5 A 0.50005 0.50005 0 0 0 32.5 49 L 37.5 49 A 0.50005 0.50005 0 0 0 38 48.5 L 38 42.5 A 0.50005 0.50005 0 0 0 37.5 42 L 32.5 42 z M 42.5 42 A 0.50005 0.50005 0 0 0 42 42.5 L 42 48.5 A 0.50005 0.50005 0 0 0 42.5 49 L 47.5 49 A 0.50005 0.50005 0 0 0 48 48.5 L 48 42.5 A 0.50005 0.50005 0 0 0 47.5 42 L 42.5 42 z M 52.5 42 A 0.50005 0.50005 0 0 0 52 42.5 L 52 48.5 A 0.50005 0.50005 0 0 0 52.5 49 L 57.5 49 A 0.50005 0.50005 0 0 0 58 48.5 L 58 42.5 A 0.50005 0.50005 0 0 0 57.5 42 L 52.5 42 z M 62.5 42 A 0.50005 0.50005 0 0 0 62 42.5 L 62 48.5 A 0.50005 0.50005 0 0 0 62.5 49 L 67.5 49 A 0.50005 0.50005 0 0 0 68 48.5 L 68 42.5 A 0.50005 0.50005 0 0 0 67.5 42 L 62.5 42 z M 33 43 L 37 43 L 37 48 L 33 48 L 33 43 z M 43 43 L 47 43 L 47 48 L 43 48 L 43 43 z M 53 43 L 57 43 L 57 48 L 53 48 L 53 43 z M 63 43 L 67 43 L 67 48 L 63 48 L 63 43 z M 32.5 52 A 0.50005 0.50005 0 0 0 32 52.5 L 32 58.5 A 0.50005 0.50005 0 0 0 32.5 59 L 37.5 59 A 0.50005 0.50005 0 0 0 38 58.5 L 38 52.5 A 0.50005 0.50005 0 0 0 37.5 52 L 32.5 52 z M 42.5 52 A 0.50005 0.50005 0 0 0 42 52.5 L 42 58.5 A 0.50005 0.50005 0 0 0 42.5 59 L 47.5 59 A 0.50005 0.50005 0 0 0 48 58.5 L 48 52.5 A 0.50005 0.50005 0 0 0 47.5 52 L 42.5 52 z M 52.5 52 A 0.50005 0.50005 0 0 0 52 52.5 L 52 58.5 A 0.50005 0.50005 0 0 0 52.5 59 L 57.5 59 A 0.50005 0.50005 0 0 0 58 58.5 L 58 52.5 A 0.50005 0.50005 0 0 0 57.5 52 L 52.5 52 z M 62.5 52 A 0.50005 0.50005 0 0 0 62 52.5 L 62 58.5 A 0.50005 0.50005 0 0 0 62.5 59 L 67.5 59 A 0.50005 0.50005 0 0 0 68 58.5 L 68 52.5 A 0.50005 0.50005 0 0 0 67.5 52 L 62.5 52 z M 33 53 L 37 53 L 37 58 L 33 58 L 33 53 z M 43 53 L 47 53 L 47 58 L 43 58 L 43 53 z M 53 53 L 57 53 L 57 58 L 53 58 L 53 53 z M 63 53 L 67 53 L 67 58 L 63 58 L 63 53 z M 32.5 62 A 0.50005 0.50005 0 0 0 32 62.5 L 32 68.5 A 0.50005 0.50005 0 0 0 32.5 69 L 37.5 69 A 0.50005 0.50005 0 0 0 38 68.5 L 38 62.5 A 0.50005 0.50005 0 0 0 37.5 62 L 32.5 62 z M 42.5 62 A 0.50005 0.50005 0 0 0 42 62.5 L 42 68.5 A 0.50005 0.50005 0 0 0 42.5 69 L 47.5 69 A 0.50005 0.50005 0 0 0 48 68.5 L 48 62.5 A 0.50005 0.50005 0 0 0 47.5 62 L 42.5 62 z M 52.5 62 A 0.50005 0.50005 0 0 0 52 62.5 L 52 68.5 A 0.50005 0.50005 0 0 0 52.5 69 L 57.5 69 A 0.50005 0.50005 0 0 0 58 68.5 L 58 62.5 A 0.50005 0.50005 0 0 0 57.5 62 L 52.5 62 z M 62.5 62 A 0.50005 0.50005 0 0 0 62 62.5 L 62 68.5 A 0.50005 0.50005 0 0 0 62.5 69 L 67.5 69 A 0.50005 0.50005 0 0 0 68 68.5 L 68 62.5 A 0.50005 0.50005 0 0 0 67.5 62 L 62.5 62 z M 33 63 L 37 63 L 37 68 L 33 68 L 33 63 z M 43 63 L 47 63 L 47 68 L 43 68 L 43 63 z M 53 63 L 57 63 L 57 68 L 53 68 L 53 63 z M 63 63 L 67 63 L 67 68 L 63 68 L 63 63 z M 50 73 C 51.668484 73 53 74.331516 53 76 L 53 83 L 47 83 L 47 76 C 47 74.331516 48.331516 73 50 73 z M 30.5 76 A 0.50005 0.50005 0 1 0 30.5 77 L 34.5 77 A 0.50005 0.50005 0 1 0 34.5 76 L 30.5 76 z M 68.5 76 A 0.50005 0.50005 0 1 0 68.5 77 L 70.5 77 A 0.50005 0.50005 0 1 0 70.5 76 L 68.5 76 z"/></svg>