<svg fill="#000000" xmlns="http://www.w3.org/2000/svg"  viewBox="0 0 128 128" width="64px" height="64px"><path d="M35 55c-16.6 0-30 4.3-30 9.5v12c0 2.5 3 4.8 8 6.5 1.9.7 4-.8 4-2.8l0-5.7c0-1.3-.9-2.5-2.2-2.9-1.3-.4-2.5-.8-3.6-1.3-2.5-1-2.5-4.5 0-5.5C16.7 62.5 25.3 61 35 61c9.7 0 18.3 1.5 23.8 3.7 2.5 1 2.5 4.5 0 5.6C53.3 72.5 44.7 74 35 74c-1.6 0-3.3 0-4.8-.1-1.7-.1-3.2 1.3-3.2 3v6c0 1.6 1.2 2.9 2.8 3C31.5 86 33.2 86 35 86c16.6 0 30-4.3 30-9.5v-12C65 59.3 51.6 55 35 55zM60.7 87.4C55.4 90.2 45.9 92 35 92c-1.6 0-3.3 0-4.8-.1-1.7-.1-3.2 1.3-3.2 3v6c0 1.6 1.2 2.9 2.8 3 1.7.1 3.4.1 5.2.1 16.6 0 30-4.3 30-9.5v-4.4C65 87.9 62.6 86.4 60.7 87.4zM14.8 89.5c-2.1-.6-3.9-1.3-5.4-2.1-2-1-4.4.4-4.4 2.7v4.4c0 2.5 3 4.8 8 6.5 1.9.7 4-.8 4-2.8v-5.7C17 91.1 16.1 89.9 14.8 89.5zM60.7 105.4c-5.3 2.7-14.8 4.6-25.7 4.6-1.6 0-3.3 0-4.8-.1-1.7-.1-3.2 1.3-3.2 3v6c0 1.6 1.2 2.9 2.8 3 1.7.1 3.4.1 5.2.1 16.6 0 30-4.3 30-9.5v-4.4C65 105.9 62.6 104.4 60.7 105.4zM14.8 107.5c-2.1-.6-3.9-1.3-5.4-2.1-2-1-4.4.4-4.4 2.7v4.4c0 2.5 3 4.8 8 6.5 1.9.7 4-.8 4-2.8v-5.7C17 109.1 16.1 107.9 14.8 107.5zM90.6 6.1l-.1 0c-18.7.3-36 1.3-49.7 2.8C14.2 11.9 12 15.7 12 19v25c0 1.7 1.3 3 3 3h0c1.7 0 3-1.3 3-3V24.8c4.1 1.5 11.1 3 22.7 4.3C57.6 31 80.1 32 104 32h1c3.9 0 7 3.1 7 7v3.9c0 1.5 1 2.8 2.4 3.1 1.9.4 3.6-1.1 3.6-2.9v-4c0-6.5-4.8-11.9-11-12.8v-3.9C107 13.2 99.6 6 90.6 6.1zM125 55h-19.1c-7.3 0-13.5 5.6-13.9 12.8C91.6 75.6 97.8 82 105.5 82h6.5v15c0 3.9-3.1 7-7 7h-1c-9.4 0-18.1-.2-25.9-.4-1.7-.1-3.1 1.3-3.1 3 0 1.6 1.3 2.9 2.9 3 8.4.3 17.1.4 26.1.4h1c7.2 0 13-5.8 13-13V82h7c1.7 0 3-1.3 3-3V58C128 56.3 126.7 55 125 55zM122 76h-16.5c-4.1 0-7.5-3.4-7.5-7.5s3.4-7.5 7.5-7.5H122V76z"/></svg>