<svg width="17" height="11" viewBox="0 0 17 11" fill="none" xmlns="http://www.w3.org/2000/svg">
<path d="M6.076 6.41394C5.84462 6.16275 5.57236 5.94938 5.26971 5.78514C5.65711 5.41113 5.90402 4.89122 5.92059 4.31535C6.07573 4.96182 6.46827 5.51697 7.00045 5.88339C6.66725 6.01896 6.35716 6.19902 6.076 6.41394ZM5.84765 3.69627C5.84765 3.6964 5.84765 3.69653 5.84765 3.69666C5.60227 2.79162 4.7736 2.12397 3.79151 2.12397C2.61666 2.12397 1.66205 3.0792 1.66205 4.25343C1.66205 4.85387 1.91201 5.39777 2.31321 5.78518C1.34317 6.31181 0.682593 7.33986 0.682593 8.51933C0.682593 8.94252 1.02559 9.28473 1.44799 9.28473H4.50654C4.49758 9.38819 4.49239 9.49275 4.49239 9.5991C4.49239 10.0222 4.83532 10.3652 5.25845 10.3652H11.7417C12.1649 10.3652 12.5078 10.0222 12.5078 9.5991C12.5078 9.49238 12.5018 9.38768 12.4931 9.28473H15.5515C15.9745 9.28473 16.3176 8.94258 16.3176 8.51933C16.3176 7.33921 15.657 6.31175 14.687 5.78521C15.0883 5.39784 15.3389 4.85393 15.3389 4.25343C15.3389 3.07927 14.3837 2.12397 13.2094 2.12397C12.2277 2.12397 11.3991 2.79156 11.1538 3.69662C11.1538 3.69651 11.1538 3.69639 11.1538 3.69627C11.1538 2.23321 9.96346 1.04355 8.50037 1.04355C7.03802 1.04355 5.84765 2.23316 5.84765 3.69627ZM11.0808 4.31505C11.0973 4.89101 11.3437 5.41104 11.7311 5.78515C11.4284 5.94944 11.1566 6.16285 10.9248 6.414C10.6437 6.19905 10.3335 6.01897 10.0003 5.88339C10.5326 5.51689 10.9256 4.96167 11.0808 4.31505ZM13.2089 5.51609H13.2088C12.511 5.5167 11.9449 4.95124 11.9449 4.25277C11.9449 3.55432 12.5111 2.98879 13.2089 2.98879C13.9067 2.98879 14.4729 3.55497 14.4729 4.25277C14.4729 4.95053 13.9068 5.51609 13.2089 5.51609ZM3.79056 5.51609H3.79047C3.0927 5.5167 2.52658 4.95124 2.52658 4.25277C2.52658 3.55432 3.09272 2.98879 3.79056 2.98879C4.48901 2.98879 5.05453 3.55493 5.05453 4.25277C5.05453 4.95053 4.48842 5.51609 3.79056 5.51609ZM11.6162 9.1973C11.6283 9.29705 11.6364 9.39767 11.6397 9.4992H5.36052C5.36398 9.3978 5.37257 9.29722 5.38523 9.19741C5.41352 8.97424 5.46562 8.75874 5.53834 8.55279C5.65286 8.22917 5.81889 7.92989 6.02686 7.66397C6.16784 7.48371 6.3281 7.31895 6.50438 7.17354C7.04762 6.72621 7.74251 6.4579 8.5007 6.4579C9.25893 6.4579 9.95382 6.7262 10.497 7.17354C10.673 7.31874 10.8327 7.48413 10.9746 7.6641C11.1826 7.92999 11.3486 8.22922 11.4631 8.55279C11.5358 8.75866 11.5879 8.97479 11.6162 9.1973ZM6.71283 3.69629C6.71283 2.70958 7.51278 1.90895 8.50017 1.90895C9.48685 1.90895 10.2875 2.70954 10.2875 3.69629C10.2875 4.68362 9.48694 5.48363 8.50017 5.48363C7.51282 5.48363 6.71283 4.68371 6.71283 3.69629ZM1.5506 8.41945C1.60293 7.22745 2.58637 6.27666 3.79118 6.27666C4.44817 6.27666 5.03788 6.55959 5.44803 7.00968C5.10116 7.41772 4.83478 7.89636 4.67348 8.42011L1.5506 8.41945ZM15.4495 8.41876L12.3272 8.41941C12.1654 7.89575 11.8996 7.4171 11.5528 7.009C11.963 6.55888 12.5527 6.27596 13.2089 6.27596C14.4144 6.27596 15.3972 7.22678 15.4495 8.41876Z" fill="#213F7D" stroke="#213F7D" stroke-width="0.2"/>
</svg>
